<svg xmlns="http://www.w3.org/2000/svg" viewBox="0 0 512 512" role="img" aria-label="SWIPE BIN icon">
  <defs>
    <linearGradient id="bg" x1="0" x2="1" y1="0" y2="1">
      <stop offset="0" stop-color="#0b0d0a"/>
      <stop offset="1" stop-color="#1d3210"/>
    </linearGradient>
    <linearGradient id="neon" x1="0" x2="1">
      <stop offset="0" stop-color="#dfff22"/>
      <stop offset="1" stop-color="#72ff30"/>
    </linearGradient>
  </defs>
  <rect width="512" height="512" rx="112" fill="url(#bg)"/>
  <circle cx="374" cy="126" r="78" fill="#d8ff1f"/>
  <path d="M86 143h142M66 205h204M92 267h166" stroke="url(#neon)" stroke-width="28" stroke-linecap="round"/>
  <text x="87" y="296" fill="#fff" font-family="Arial Black, Arial, sans-serif" font-size="94" font-style="italic" font-weight="900">SWIPE</text>
  <text x="148" y="389" fill="#d8ff1f" font-family="Arial Black, Arial, sans-serif" font-size="106" font-style="italic" font-weight="900">BIN</text>
  <g transform="translate(325 98)">
    <ellipse cx="48" cy="46" rx="48" ry="42" fill="#f4f2e8"/>
    <path d="M6 44c9-32 21-42 42-42 24 0 38 13 45 42-20-13-64-13-87 0z" fill="#111"/>
    <circle cx="29" cy="48" r="12" fill="#111"/>
    <circle cx="66" cy="48" r="12" fill="#111"/>
    <circle cx="33" cy="45" r="4" fill="#fff"/>
    <circle cx="70" cy="45" r="4" fill="#fff"/>
    <path d="M44 59c5 4 11 4 16 0" stroke="#111" stroke-width="5" stroke-linecap="round"/>
  </g>
</svg>
